# xmcd
# Track frame offsets:
# 150
# 12380
# 26147
# 38272
# 55247
# 70702
# 86107
# 102155
# 115727
# 130117
# 146197
#
# Disc length: 2141 seconds
# Revision: 0
# Processed by: cddbd v1.4PL0 Copyright (c) Steve Scherf et al.
# Submitted via: VisiTrax 2.9.5.180 - For more info visit www.synapsa.com
#
DISCID=8f085b0b
DTITLE=Johnny Penn - Honey do this, honey do that
DYEAR=1999
DGENRE=
TTITLE0=Honey do list
TTITLE1=I can't quit lovin' you
TTITLE2=That's it there goes my heart
TTITLE3=June 31st
TTITLE4=Someone else's angel
TTITLE5=Letting go of a memory
TTITLE6=Two strangers in time square
TTITLE7=This could be the night
TTITLE8=I'm a real cowboy now
TTITLE9=I think of you
TTITLE10=How can I love her
EXTD=
EXTT0=
EXTT1=
EXTT2=
EXTT3=
EXTT4=
EXTT5=
EXTT6=
EXTT7=
EXTT8=
EXTT9=
EXTT10=
PLAYORDER=
